<?xml version="1.0" encoding="UTF-8" standalone="no"?>
<!-- Created with Inkscape (http://www.inkscape.org/) -->

<svg
   width="27.127842mm"
   height="17.485222mm"
   viewBox="0 0 27.127842 17.485222"
   version="1.1"
   id="svg5"
   xml:space="preserve"
   xmlns="http://www.w3.org/2000/svg"
   xmlns:svg="http://www.w3.org/2000/svg"><defs
     id="defs2" /><g
     id="layer1"
     transform="translate(-35.678422,-111.12711)"><path
       style="fill:#ffdc53;fill-opacity:1;stroke:#000000;stroke-width:0.378501;stroke-linecap:round"
       d="m 44.799102,114.67632 v -2.82682 l 10.386887,-0.52592 0.723137,2.36663 6.63972,-1.05183 0.06574,5.25918 -6.573979,-0.13148 -0.3287,4.73327 2.235154,0.85461 -0.525919,5.06197 -4.799006,-0.19722 0.72314,-3.48421 h -7.099897 l -0.394441,3.54995 -3.812907,-0.19722 -0.262959,-4.27309 3.024031,-0.19722 -0.788877,-6.37675 -3.681428,0.85461 -4.338826,-4.53604 3.812907,-1.9722 z"
       id="path360" /><ellipse
       style="fill:#ececec;stroke:#000000;stroke-width:0.499999;stroke-linecap:round"
       id="path1133"
       cx="46.959869"
       cy="114.56645"
       rx="0.23881578"
       ry="0.28223684" /><ellipse
       style="fill:#ececec;stroke:#000000;stroke-width:0.499999;stroke-linecap:round"
       id="path1133-7"
       cx="52.886845"
       cy="114.71842"
       rx="0.23881578"
       ry="0.28223684" /><path
       id="path1935"
       style="fill:none;stroke:#000000;stroke-width:0.442914;stroke-linecap:round"
       d="m 51.516555,115.12383 a 1.5048582,0.75208525 0 0 1 0.0094,0.0837 v 0 a 1.5048582,0.75208525 0 0 1 -1.504858,0.75208 1.5048582,0.75208525 0 0 1 -1.504858,-0.75208 1.5048582,0.75208525 0 0 1 0.0094,-0.0838" /></g></svg>
