<?xml version="1.0" encoding="UTF-8" standalone="no"?>
<!-- Created with Inkscape (http://www.inkscape.org/) -->

<svg
   width="23.773666mm"
   height="27.450989mm"
   viewBox="0 0 23.773666 27.450989"
   version="1.1"
   id="svg5"
   xml:space="preserve"
   xmlns="http://www.w3.org/2000/svg"
   xmlns:svg="http://www.w3.org/2000/svg"><defs
     id="defs2" /><g
     id="layer1"
     transform="translate(-36.559251,-172.8762)"><path
       style="fill:#e0e0e0;fill-opacity:1;stroke:#000000;stroke-width:0.378501;stroke-linecap:round"
       d="m 42.885468,180.32882 -6.048062,-4.60178 1.774975,-1.97219 4.601786,5.45639 0.262957,-6.04805 6.4425,0.13147 0.591658,4.27309 8.414693,-4.40456 1.183317,6.50824 -9.07209,0.72313 0.460177,10.51837 3.54995,8.61191 -4.733265,0.59166 -1.183316,-7.88877 -1.512015,0.65739 0.06574,6.04806 -3.681429,0.39445 0.19722,-5.71937 z"
       id="path356" /><ellipse
       style="fill:#ececec;stroke:#000000;stroke-width:0.499999;stroke-linecap:round"
       id="path1133-2-9"
       cx="44.626663"
       cy="178.52057"
       rx="0.23881578"
       ry="0.28223684" /><ellipse
       style="fill:#ececec;stroke:#000000;stroke-width:0.499999;stroke-linecap:round"
       id="path1133-7-4-4"
       cx="49.632534"
       cy="178.36551"
       rx="0.23881578"
       ry="0.28223684" /><path
       id="path1935-8-7"
       style="fill:none;stroke:#000000;stroke-width:0.417916;stroke-linecap:round"
       d="m 48.581703,179.61813 a 1.5173573,0.66406985 0 0 1 0.0095,0.0739 v 0 a 1.5173573,0.66406985 0 0 1 -1.517357,0.66407 1.5173573,0.66406985 0 0 1 -1.517357,-0.66407 1.5173573,0.66406985 0 0 1 0.0095,-0.074" /><path
       style="fill:#ececec;stroke:#000000;stroke-width:0.499999;stroke-linecap:round"
       d="m 44.212782,177.15816 1.473758,0.73688"
       id="path2124" /></g></svg>
