<?xml version="1.0" encoding="UTF-8" standalone="no"?>
<!-- Created with Inkscape (http://www.inkscape.org/) -->

<svg
   width="21.44809mm"
   height="14.775986mm"
   viewBox="0 0 21.44809 14.775986"
   version="1.1"
   id="svg5"
   xml:space="preserve"
   xmlns="http://www.w3.org/2000/svg"
   xmlns:svg="http://www.w3.org/2000/svg"><defs
     id="defs2" /><g
     id="layer1"
     transform="translate(-35.473828,-155.91947)"><path
       id="path418"
       style="fill:#ff80e5;stroke:#000000;stroke-width:0.378501;stroke-linecap:round"
       d="m 53.478381,156.10915 a 3.2541196,3.0404655 0 0 0 -3.253939,3.04034 3.2541196,3.0404655 0 0 0 0.0442,0.49212 5.1605737,5.2591832 0 0 0 -3.791437,-1.6919 5.1605737,5.2591832 0 0 0 -4.275343,2.31508 3.4677738,2.2351529 0 0 0 -3.070861,-1.19745 3.4677738,2.2351529 0 0 0 -3.467922,2.23528 3.4677738,2.2351529 0 0 0 3.467922,2.23488 3.4677738,2.2351529 0 0 0 2.191851,-0.50307 5.1605737,5.2591832 0 0 0 -0.0063,0.17447 5.1605737,5.2591832 0 0 0 0.380631,1.97748 2.6131565,2.4652422 0 0 0 -1.761149,2.32838 2.6131565,2.4652422 0 0 0 2.613166,2.46529 2.6131565,2.4652422 0 0 0 2.491114,-1.72242 5.1605737,5.2591832 0 0 0 1.43685,0.21047 5.1605737,5.2591832 0 0 0 2.239968,-0.52107 2.7610713,2.6788963 0 0 0 2.756342,2.55918 2.7610713,2.6788963 0 0 0 2.761037,-2.67889 2.7610713,2.6788963 0 0 0 -2.761037,-2.67889 2.7610713,2.6788963 0 0 0 -0.20342,0.007 5.1605737,5.2591832 0 0 0 0.367721,-1.94696 5.1605737,5.2591832 0 0 0 -0.302783,-1.77445 3.2541196,3.0404655 0 0 0 2.143344,0.7554 3.2541196,3.0404655 0 0 0 3.25433,-3.04036 3.2541196,3.0404655 0 0 0 -3.25433,-3.04034 z" /><ellipse
       style="fill:#ececec;stroke:#000000;stroke-width:0.499999;stroke-linecap:round"
       id="path1133-2-8"
       cx="43.582752"
       cy="162.00218"
       rx="0.23881578"
       ry="0.28223684" /><ellipse
       style="fill:#ececec;stroke:#000000;stroke-width:0.499999;stroke-linecap:round"
       id="path1133-7-4-2"
       cx="49.509724"
       cy="162.15416"
       rx="0.23881578"
       ry="0.28223684" /><path
       id="path1935-8-9"
       style="fill:none;stroke:#000000;stroke-width:0.442914;stroke-linecap:round"
       d="m 48.139435,162.55958 a 1.5048582,0.75208525 0 0 1 0.0094,0.0837 v 0 a 1.5048582,0.75208525 0 0 1 -1.504858,0.75208 1.5048582,0.75208525 0 0 1 -1.504858,-0.75208 1.5048582,0.75208525 0 0 1 0.0094,-0.0838" /></g></svg>
