<?xml version="1.0" encoding="UTF-8" standalone="no"?>
<!-- Created with Inkscape (http://www.inkscape.org/) -->

<svg
   width="38.259872mm"
   height="23.19574mm"
   viewBox="0 0 38.259872 23.19574"
   version="1.1"
   id="svg5"
   xml:space="preserve"
   xmlns="http://www.w3.org/2000/svg"
   xmlns:svg="http://www.w3.org/2000/svg"><defs
     id="defs2" /><g
     id="layer1"
     transform="translate(-29.342835,-129.87991)"><path
       style="fill:#92ff8b;fill-opacity:1;stroke:#000000;stroke-width:0.378501;stroke-linecap:round"
       d="m 43.418567,135.58157 4.996224,-5.39067 3.08977,4.99623 6.179541,-3.08978 9.400788,0.39445 -8.743391,6.90268 -5.850842,-1.6435 -3.08977,8.74339 1.709236,2.03794 -0.6574,4.1416 -2.761071,-2.82681 0.39444,-2.82681 h -0.986096 v 2.6296 l -5.916584,2.56385 2.629593,-4.47032 2.235152,-1.24905 -3.155509,-9.46653 -7.888776,1.57776 c -2.06823,-0.86132 -11.465856,-3.73086 0.460182,-6.70546 z"
       id="path358" /><ellipse
       style="fill:#ececec;stroke:#000000;stroke-width:0.499999;stroke-linecap:round"
       id="path1133-2"
       cx="44.810879"
       cy="136.33421"
       rx="0.23881578"
       ry="0.28223684" /><ellipse
       style="fill:#ececec;stroke:#000000;stroke-width:0.499999;stroke-linecap:round"
       id="path1133-7-4"
       cx="50.73785"
       cy="136.48619"
       rx="0.23881578"
       ry="0.28223684" /><path
       id="path1935-8"
       style="fill:none;stroke:#000000;stroke-width:0.442914;stroke-linecap:round"
       d="m 49.367565,136.8916 a 1.5048582,0.75208525 0 0 1 0.0094,0.0837 v 0 a 1.5048582,0.75208525 0 0 1 -1.504858,0.75208 1.5048582,0.75208525 0 0 1 -1.504858,-0.75208 1.5048582,0.75208525 0 0 1 0.0094,-0.0838" /></g></svg>
